HIERARCHY
ROOT Hips
{
	OFFSET 0.00000 0.00000 0.00000
	CHANNELS 6 Xposition Yposition Zposition Zrotation Yrotation Xrotation 
	JOINT LHipJoint
	{
		OFFSET 0 0 0
		CHANNELS 3 Zrotation Yrotation Xrotation
		JOINT LeftHip
		{
			OFFSET 1.70593 -1.62653 0.87602
			CHANNELS 3 Zrotation Yrotation Xrotation
			JOINT LeftKnee
			{
				OFFSET 2.32330 -6.38322 0.00000
				CHANNELS 3 Zrotation Yrotation Xrotation
				JOINT LeftAnkle
				{
					OFFSET 2.45016 -6.73177 0.00000
					CHANNELS 3 Zrotation Yrotation Xrotation
					JOINT LeftToe
					{
						OFFSET 0.13029 -0.35798 1.96980
						CHANNELS 3 Zrotation Yrotation Xrotation
						End Site
						{
							OFFSET 0.00000 -0.00000 1.01270
						}
					}
				}
			}
		}
	}
	JOINT RHipJoint
	{
		OFFSET 0 0 0
		CHANNELS 3 Zrotation Yrotation Xrotation
		JOINT RightHip
		{
			OFFSET -1.80599 -1.62652 0.87602
			CHANNELS 3 Zrotation Yrotation Xrotation
			JOINT RightKnee
			{
				OFFSET -2.45375 -6.74162 0.00000
				CHANNELS 3 Zrotation Yrotation Xrotation
				JOINT RightAnkle
				{
					OFFSET -2.45828 -6.75406 0.00000
					CHANNELS 3 Zrotation Yrotation Xrotation
					JOINT RightToe
					{
						OFFSET -0.13801 -0.37917 1.88456
						CHANNELS 3 Zrotation Yrotation Xrotation
						End Site
						{
							OFFSET -0.00000 -0.00000 0.97281
						}
					}
				}
			}
		}
	}
	JOINT lowerback
	{
		OFFSET 0 0 0
		CHANNELS 3 Zrotation Yrotation Xrotation
		JOINT Chest
		{
			OFFSET 0.01003 2.00576 -0.14267
			CHANNELS 3 Zrotation Yrotation Xrotation
			JOINT Chest2
			{
				OFFSET 0.00908 2.01191 0.01660
				CHANNELS 3 Zrotation Yrotation Xrotation
				JOINT lowerneck
				{
					OFFSET 0 0 0
					CHANNELS 3 Zrotation Yrotation Xrotation
					JOINT Neck
					{
						OFFSET -0.05849 1.60301 0.18934
						CHANNELS 3 Zrotation Yrotation Xrotation
						JOINT Head
						{
							OFFSET 0.01775 1.59435 -0.07960
							CHANNELS 3 Zrotation Yrotation Xrotation
							End Site
							{
								OFFSET 0.01210 1.70732 -0.05248
							}
						}
					}
				}
				JOINT LeftCollar
				{
					OFFSET 0 0 0
					CHANNELS 3 Zrotation Yrotation Xrotation
					JOINT LeftShoulder
					{
						OFFSET 3.15315 1.26460 0.30667
CHANNELS 3 Zrotation Xrotation Yrotation
						JOINT LeftElbow
						{
OFFSET 0 -4.976940 -0.000000
CHANNELS 3 Zrotation Xrotation Yrotation
							JOINT LeftWrist
							{
OFFSET 0 -3.143910 -0.000000
CHANNELS 3 Zrotation Xrotation Yrotation
								JOINT lhand
								{
									OFFSET 0 0 0
CHANNELS 3 Zrotation Xrotation Yrotation
									JOINT LFingers
									{
OFFSET 0 -0.593580 -0.000000
CHANNELS 3 Zrotation Xrotation Yrotation
										End Site
										{
OFFSET 0 -0.478560 -0.000000
										}
									}
								}
								JOINT LThumb
								{
OFFSET 0 0.000000 0.000000
CHANNELS 3 Zrotation Xrotation Yrotation
									End Site
									{
OFFSET 0 -0.485870 0.485870
									}
								}
							}
						}
					}
				}
				JOINT RightCollar
				{
					OFFSET 0 0 0
					CHANNELS 3 Zrotation Yrotation Xrotation
					JOINT RightShoulder
					{
						OFFSET -3.25568 1.35581 0.18982
CHANNELS 3 Zrotation Xrotation Yrotation
						JOINT RightElbow
						{
OFFSET 0 -4.904730 0.000000
CHANNELS 3 Zrotation Xrotation Yrotation
							JOINT RightWrist
							{
OFFSET 0 -3.216210 -0.000040
CHANNELS 3 Zrotation Xrotation Yrotation
								JOINT rhand
								{
									OFFSET 0 0 0
CHANNELS 3 Zrotation Xrotation Yrotation
									JOINT RFingers
									{
OFFSET 0 -0.623530 -0.000000
CHANNELS 3 Zrotation Xrotation Yrotation
										End Site
										{
OFFSET 0 -0.502700 -0.000000
										}
									}
								}
								JOINT RThumb
								{
OFFSET 0 0.000000 0.000000
CHANNELS 3 Zrotation Xrotation Yrotation
									End Site
									{
OFFSET 0 -0.510380 0.510380
									}
								}
							}
						}
					}
				}
			}
		}
	}
}
MOTION
Frames: 11
Frame Time: 0.008333333333333333
9.050419 16.104303 -1.553525 4.206546 0.665297 6.874286 0.000000 0.000000 0.000000 -28.357540 2.242468 5.370425 0.528312 4.645541 12.902404 0.481529 -12.022994 -13.976159 0.185876 2.767360 7.632432 0.000000 0.000000 0.000000 13.598419 13.182298 -43.721517 -3.361214 -11.256919 33.152686 -0.810553 7.289118 -16.110333 -0.114022 2.173228 -5.984848 -6.367938 -0.199307 -0.100906 -1.091160 -0.383647 -2.744741 2.449135 -0.055065 -2.746945 -2.165862 -0.065176 -6.390554 3.833642 -0.427404 15.914855 1.538101 -0.055783 5.867268 0.000000 0.000000 0.000000 10.428816 -24.568115 -41.432193 20.190987 -30.870453 5.629616 26.699540 -21.386069 16.861075 0.000000 0.000000 0.000000 -7.125000 0.000000 0.000000 -0.764217 11.241703 -0.601405 0.000000 0.000000 0.000000 1.050047 28.367230 6.469636 -12.837370 -21.048439 -2.394603 -11.766273 19.578687 36.410068 0.000000 0.000000 0.000000 7.125000 0.000000 0.000000 28.200839 64.831811 -14.061566
9.050856 16.085510 -1.440576 4.351838 0.757892 6.853057 0.000000 0.000000 0.000000 -28.452819 2.618403 6.467076 0.429536 4.202423 11.647413 0.485588 -11.734783 -13.907478 0.146228 2.461479 6.783096 0.000000 0.000000 0.000000 13.236657 13.485494 -44.024151 -3.245643 -11.082157 32.557657 -0.817858 7.464755 -16.194998 -0.132067 2.341684 -6.450943 -6.429813 -0.271922 -0.276917 -1.084479 -0.464940 -2.701222 2.491405 -0.099396 -2.595035 -2.352987 -0.037329 -6.282662 3.999725 -0.393813 15.905364 1.623703 -0.039549 5.844603 0.000000 0.000000 0.000000 10.547447 -24.987944 -41.856580 20.541760 -31.289158 5.810247 26.444421 -21.771807 17.210225 0.000000 0.000000 0.000000 -7.125000 0.000000 0.000000 -0.966452 10.899109 -0.766614 0.000000 0.000000 0.000000 0.994540 28.468691 6.310109 -12.785110 -20.971516 -2.375810 -15.448019 21.636062 35.513405 0.000000 0.000000 0.000000 7.125000 0.000000 0.000000 23.149716 65.072632 -11.523299
9.052975 16.063406 -1.319830 4.681453 0.838539 6.716612 0.000000 0.000000 0.000000 -28.731188 3.020759 7.822654 0.334855 3.695638 10.224533 0.481064 -11.359964 -13.726666 0.129523 2.317876 6.385145 0.000000 0.000000 0.000000 12.741167 13.579405 -44.266316 -3.139158 -10.915808 31.997575 -0.788366 7.584522 -15.920272 -0.137770 2.392288 -6.591135 -6.683360 -0.358784 -0.407828 -1.122056 -0.569905 -2.632910 2.594649 -0.152757 -2.440152 -2.250109 -0.012231 -6.221665 3.845964 -0.348442 15.880729 1.560769 -0.023316 5.824855 0.000000 0.000000 0.000000 10.641172 -25.344050 -42.127888 20.902854 -31.713192 5.999517 26.198165 -22.108576 17.559150 0.000000 0.000000 0.000000 -7.125000 0.000000 0.000000 -1.162124 10.557469 -0.930589 0.000000 0.000000 0.000000 0.850293 28.735908 6.508682 -12.804930 -21.000722 -2.382931 -17.255793 22.228948 34.871013 0.000000 0.000000 0.000000 7.125000 0.000000 0.000000 20.436345 64.988727 -10.084239
9.054396 16.039502 -1.201315 4.963479 0.954303 6.547921 0.000000 0.000000 0.000000 -28.942630 3.404644 9.226472 0.246734 3.179745 8.780887 0.473475 -10.974460 -13.512270 0.114152 2.175579 5.991285 0.000000 0.000000 0.000000 12.302325 13.654132 -44.450627 -3.031533 -10.745019 31.425472 -0.755435 7.655813 -15.605364 -0.137520 2.389444 -6.583302 -6.884034 -0.436529 -0.467336 -1.157763 -0.667411 -2.551675 2.670599 -0.203082 -2.312803 -2.089416 0.002828 -6.254233 3.654213 -0.317898 15.904358 1.475773 -0.012567 5.836939 0.000000 0.000000 0.000000 10.726281 -25.714446 -42.402231 21.269767 -32.140812 6.193340 25.918054 -22.308552 17.831574 0.000000 0.000000 0.000000 -7.125000 0.000000 0.000000 -1.372230 10.304884 -1.105043 0.000000 0.000000 0.000000 0.728884 29.006787 6.783056 -12.849079 -21.065668 -2.398821 -18.474602 22.428518 34.493592 0.000000 0.000000 0.000000 7.125000 0.000000 0.000000 18.656272 64.981452 -9.163406
9.053709 16.012217 -1.090176 5.083359 1.156475 6.333698 0.000000 0.000000 0.000000 -28.946439 3.737685 10.675207 0.173057 2.659329 7.333027 0.460925 -10.586849 -13.248347 0.095795 1.992887 5.486167 0.000000 0.000000 0.000000 12.033532 13.739484 -44.514064 -2.918771 -10.561453 30.815521 -0.724216 7.627217 -15.291553 -0.126469 2.291542 -6.312074 -6.908073 -0.488851 -0.369747 -1.177181 -0.740900 -2.446468 2.665542 -0.243791 -2.251489 -1.869449 -0.005164 -6.495928 3.458160 -0.325640 16.046403 1.378309 -0.014815 5.923665 0.000000 0.000000 0.000000 10.797647 -26.135774 -42.724782 21.647701 -32.575501 6.395637 25.555355 -22.197538 17.922795 0.000000 0.000000 0.000000 -7.125000 0.000000 0.000000 -1.618296 10.263051 -1.304656 0.000000 0.000000 0.000000 0.685365 29.241927 7.141072 -12.931559 -21.186859 -2.428541 -18.800088 22.088609 34.675846 0.000000 0.000000 0.000000 7.125000 0.000000 0.000000 18.461093 65.242752 -9.175894
9.049290 15.983456 -0.982554 5.090731 1.357562 6.121298 0.000000 0.000000 0.000000 -28.828625 4.052843 12.046767 0.116917 2.171815 5.981960 0.462265 -10.156353 -13.123409 0.062334 1.547981 4.259212 0.000000 0.000000 0.000000 11.916832 13.854916 -44.489256 -2.801929 -10.365560 30.170411 -0.700333 7.644109 -15.053182 -0.102656 2.052051 -5.649978 -6.889617 -0.527197 -0.216858 -1.136178 -0.798676 -2.333709 2.699593 -0.276210 -2.214570 -1.783649 -0.032558 -6.622729 3.328473 -0.352524 16.085663 1.321732 -0.030996 5.958738 0.000000 0.000000 0.000000 10.858031 -26.560444 -43.195564 22.032276 -33.011753 6.604228 25.615080 -22.338538 17.907802 0.000000 0.000000 0.000000 -7.125000 0.000000 0.000000 -1.577797 10.269919 -1.271787 0.000000 0.000000 0.000000 0.720497 29.373543 7.172851 -13.009394 -21.300932 -2.456742 -18.732752 21.803651 34.772809 0.000000 0.000000 0.000000 7.125000 0.000000 0.000000 18.636338 65.314327 -9.297069
9.043075 15.954252 -0.876403 5.047044 1.547674 5.925264 0.000000 0.000000 0.000000 -28.651869 4.389854 13.445291 0.068735 1.641155 4.515578 0.465640 -9.649937 -12.999403 0.024679 1.001813 2.753833 0.000000 0.000000 0.000000 11.867918 13.989841 -44.448773 -2.686185 -10.168609 29.524675 -0.680157 7.682636 -14.852901 -0.076018 1.778864 -4.894944 -6.856608 -0.558252 -0.050889 -1.064482 -0.847523 -2.228220 2.757312 -0.303474 -2.193126 -1.755332 -0.066952 -6.691048 3.220250 -0.384845 16.083795 1.280658 -0.052392 5.970900 0.000000 0.000000 0.000000 10.904275 -26.971405 -43.718946 22.418512 -33.446487 6.815246 25.861939 -22.594845 17.861127 0.000000 0.000000 0.000000 -7.125000 0.000000 0.000000 -1.411879 10.281599 -1.137575 0.000000 0.000000 0.000000 0.778055 29.476492 7.073268 -13.085380 -21.412134 -2.484370 -18.474482 21.528209 34.821600 0.000000 0.000000 0.000000 7.125000 0.000000 0.000000 18.984418 65.287474 -9.464386
9.035333 15.927030 -0.769572 4.986605 1.636085 5.879997 0.000000 0.000000 0.000000 -28.420726 5.014478 15.432736 0.023155 0.552871 1.521205 0.429739 -8.590312 -12.294172 0.010569 0.588415 1.617222 0.000000 0.000000 0.000000 11.829644 14.185832 -44.631216 -2.598398 -10.013764 29.022179 -0.664735 7.737519 -14.701178 -0.076205 1.780612 -4.899689 -6.863101 -0.578045 0.006928 -0.952095 -0.876619 -2.225223 2.878191 -0.316024 -2.217976 -1.713998 -0.086745 -6.680870 3.038058 -0.388529 16.120071 1.216098 -0.065129 5.980515 0.000000 0.000000 0.000000 10.860194 -27.235390 -44.122292 22.792637 -33.859885 7.023037 26.127360 -22.897729 17.958654 0.000000 0.000000 0.000000 -7.125000 0.000000 0.000000 -1.248169 10.133061 -1.009079 0.000000 0.000000 0.000000 0.718802 29.741414 7.086817 -13.163177 -21.525770 -2.512904 -18.035110 21.111564 34.766030 0.000000 0.000000 0.000000 7.125000 0.000000 0.000000 19.433405 65.113024 -9.617046
9.028635 15.899930 -0.665936 4.837698 1.742466 5.915763 0.000000 0.000000 0.000000 -28.140987 5.315796 16.585115 0.000000 0.000000 0.000000 0.418350 -8.100196 -12.029927 0.002724 0.330879 0.909188 0.000000 0.000000 0.000000 11.808603 14.481871 -44.869349 -2.510887 -9.856739 28.514891 -0.666146 7.522330 -14.691495 -0.098601 1.998184 -5.501467 -6.724268 -0.599681 0.055591 -0.838141 -0.907281 -2.265753 2.919756 -0.329926 -2.283988 -1.683324 -0.100701 -6.758761 2.899976 -0.390062 16.209673 1.167849 -0.073351 6.022261 0.000000 0.000000 0.000000 10.812243 -27.470132 -44.386424 23.192687 -34.297059 7.247355 25.925809 -22.928636 18.070158 0.000000 0.000000 0.000000 -7.125000 0.000000 0.000000 -1.390531 10.043992 -1.127216 0.000000 0.000000 0.000000 0.622749 30.061567 7.314009 -13.253446 -21.657346 -2.546169 -17.409711 20.425954 34.835145 0.000000 0.000000 0.000000 7.125000 0.000000 0.000000 20.219244 65.002314 -9.970047
9.023016 15.872957 -0.565599 4.597439 1.867404 6.035206 0.000000 0.000000 0.000000 -27.811068 5.283266 16.875199 0.000000 0.000000 0.000000 0.432274 -8.198161 -12.221048 0.001351 0.234289 0.643704 0.000000 0.000000 0.000000 11.805356 14.881221 -45.164990 -2.423662 -9.697461 28.002654 -0.684940 7.028262 -14.828483 -0.143931 2.438617 -6.719745 -6.435371 -0.623220 0.094802 -0.722570 -0.939561 -2.351230 2.879422 -0.345223 -2.392504 -1.663656 -0.108631 -6.927592 2.807444 -0.389375 16.354341 1.136443 -0.076910 6.097186 0.000000 0.000000 0.000000 10.760295 -27.674677 -44.506803 23.619509 -34.758783 7.488738 25.242057 -22.678699 18.196094 0.000000 0.000000 0.000000 -7.125000 0.000000 0.000000 -1.848946 10.016332 -1.500030 0.000000 0.000000 0.000000 0.488696 30.438751 7.761810 -13.356592 -21.807445 -2.584318 -16.592218 19.462608 35.033009 0.000000 0.000000 0.000000 7.125000 0.000000 0.000000 21.352920 64.957421 -10.529923
9.032129 15.841147 -0.441302 5.071100 2.150558 5.875740 0.000000 0.000000 0.000000 -28.275567 5.263967 17.650496 0.000000 0.000000 0.000000 0.436635 -8.397026 -12.322998 0.000978 0.201241 0.552948 0.000000 0.000000 0.000000 11.304110 14.420941 -45.268725 -2.352059 -9.563033 27.573640 -0.644249 6.999673 -14.390475 -0.158573 2.564841 -7.069555 -6.644027 -0.729147 0.006649 -0.832760 -1.070129 -2.178534 2.881449 -0.418892 -2.150175 -1.826610 -0.130236 -7.053616 2.860398 -0.402920 16.291592 1.179142 -0.088585 6.099841 0.000000 0.000000 0.000000 10.725358 -27.949602 -44.491815 24.126385 -35.294613 7.780711 24.604947 -22.347764 18.331537 0.000000 0.000000 0.000000 -7.125000 0.000000 0.000000 -2.276896 9.969382 -1.850162 0.000000 0.000000 0.000000 0.421243 30.570827 7.882448 -13.430775 -21.915072 -2.611960 -15.928606 18.808356 34.983430 0.000000 0.000000 0.000000 7.125000 0.000000 0.000000 22.045968 64.729518 -10.768807
